<mxfile host="app.diagrams.net" modified="2024-05-07T03:02:53.355Z" agent="Mozilla/5.0 (Windows NT 10.0; Win64; x64) AppleWebKit/537.36 (KHTML, like Gecko) Chrome/124.0.0.0 Safari/537.36" etag="Hn3a8IYTB2lKxQv1uTPy" version="24.3.1" type="device">
  <diagram name="Страница — 1" id="7TrQRgj0X93dxlgfwdW_">
    <mxGraphModel dx="989" dy="909" grid="1" gridSize="10" guides="1" tooltips="1" connect="1" arrows="1" fold="1" page="0" pageScale="1" pageWidth="827" pageHeight="1169" math="0" shadow="0">
      <root>
        <mxCell id="0" />
        <mxCell id="1" parent="0" />
        <mxCell id="4iZOH7k5CTV7Lrkq2rq5-4" style="edgeStyle=orthogonalEdgeStyle;rounded=0;orthogonalLoop=1;jettySize=auto;html=1;entryX=0.5;entryY=0;entryDx=0;entryDy=0;" parent="1" source="4iZOH7k5CTV7Lrkq2rq5-1" target="4iZOH7k5CTV7Lrkq2rq5-14" edge="1">
          <mxGeometry relative="1" as="geometry">
            <mxPoint x="30" y="55" as="targetPoint" />
          </mxGeometry>
        </mxCell>
        <mxCell id="4iZOH7k5CTV7Lrkq2rq5-15" value="&amp;nbsp;(\&amp;nbsp;" style="edgeLabel;html=1;align=center;verticalAlign=middle;resizable=0;points=[];" parent="4iZOH7k5CTV7Lrkq2rq5-4" vertex="1" connectable="0">
          <mxGeometry x="-0.1261" y="-1" relative="1" as="geometry">
            <mxPoint as="offset" />
          </mxGeometry>
        </mxCell>
        <mxCell id="4iZOH7k5CTV7Lrkq2rq5-1" value="&amp;lt;LF&amp;gt;" style="ellipse;whiteSpace=wrap;html=1;" parent="1" vertex="1">
          <mxGeometry x="70" y="-50" width="50" height="50" as="geometry" />
        </mxCell>
        <mxCell id="4iZOH7k5CTV7Lrkq2rq5-17" style="edgeStyle=orthogonalEdgeStyle;rounded=0;orthogonalLoop=1;jettySize=auto;html=1;entryX=0;entryY=0.5;entryDx=0;entryDy=0;" parent="1" source="4iZOH7k5CTV7Lrkq2rq5-14" target="4iZOH7k5CTV7Lrkq2rq5-16" edge="1">
          <mxGeometry relative="1" as="geometry" />
        </mxCell>
        <mxCell id="4iZOH7k5CTV7Lrkq2rq5-18" value="&amp;nbsp;letter&amp;nbsp;" style="edgeLabel;html=1;align=center;verticalAlign=middle;resizable=0;points=[];" parent="4iZOH7k5CTV7Lrkq2rq5-17" vertex="1" connectable="0">
          <mxGeometry x="-0.1429" y="1" relative="1" as="geometry">
            <mxPoint as="offset" />
          </mxGeometry>
        </mxCell>
        <mxCell id="4iZOH7k5CTV7Lrkq2rq5-20" style="edgeStyle=orthogonalEdgeStyle;rounded=0;orthogonalLoop=1;jettySize=auto;html=1;entryX=0.282;entryY=0.072;entryDx=0;entryDy=0;entryPerimeter=0;" parent="1" source="4iZOH7k5CTV7Lrkq2rq5-14" target="4iZOH7k5CTV7Lrkq2rq5-19" edge="1">
          <mxGeometry relative="1" as="geometry">
            <Array as="points">
              <mxPoint x="86" y="100" />
              <mxPoint x="85" y="100" />
            </Array>
          </mxGeometry>
        </mxCell>
        <mxCell id="4iZOH7k5CTV7Lrkq2rq5-21" value="&amp;nbsp;-&amp;nbsp;" style="edgeLabel;html=1;align=center;verticalAlign=middle;resizable=0;points=[];" parent="4iZOH7k5CTV7Lrkq2rq5-20" vertex="1" connectable="0">
          <mxGeometry x="0.3946" y="-2" relative="1" as="geometry">
            <mxPoint x="2" y="-11" as="offset" />
          </mxGeometry>
        </mxCell>
        <mxCell id="4iZOH7k5CTV7Lrkq2rq5-14" value="ARGFUNC" style="ellipse;whiteSpace=wrap;html=1;" parent="1" vertex="1">
          <mxGeometry x="50" y="30" width="90" height="50" as="geometry" />
        </mxCell>
        <mxCell id="4iZOH7k5CTV7Lrkq2rq5-24" style="edgeStyle=orthogonalEdgeStyle;rounded=0;orthogonalLoop=1;jettySize=auto;html=1;exitX=0;exitY=0;exitDx=0;exitDy=0;entryX=0.926;entryY=0.164;entryDx=0;entryDy=0;entryPerimeter=0;" parent="1" source="4iZOH7k5CTV7Lrkq2rq5-16" target="4iZOH7k5CTV7Lrkq2rq5-14" edge="1">
          <mxGeometry relative="1" as="geometry">
            <Array as="points">
              <mxPoint x="133" y="37" />
            </Array>
          </mxGeometry>
        </mxCell>
        <mxCell id="4iZOH7k5CTV7Lrkq2rq5-25" value="&quot; &quot;" style="edgeLabel;html=1;align=center;verticalAlign=middle;resizable=0;points=[];" parent="4iZOH7k5CTV7Lrkq2rq5-24" vertex="1" connectable="0">
          <mxGeometry x="-0.0045" relative="1" as="geometry">
            <mxPoint as="offset" />
          </mxGeometry>
        </mxCell>
        <mxCell id="4iZOH7k5CTV7Lrkq2rq5-26" style="edgeStyle=orthogonalEdgeStyle;rounded=0;orthogonalLoop=1;jettySize=auto;html=1;entryX=0.5;entryY=0;entryDx=0;entryDy=0;" parent="1" source="4iZOH7k5CTV7Lrkq2rq5-16" target="4iZOH7k5CTV7Lrkq2rq5-19" edge="1">
          <mxGeometry relative="1" as="geometry">
            <Array as="points">
              <mxPoint x="255" y="90" />
              <mxPoint x="105" y="90" />
            </Array>
          </mxGeometry>
        </mxCell>
        <mxCell id="4iZOH7k5CTV7Lrkq2rq5-27" value="&amp;nbsp;-&amp;nbsp;" style="edgeLabel;html=1;align=center;verticalAlign=middle;resizable=0;points=[];" parent="4iZOH7k5CTV7Lrkq2rq5-26" vertex="1" connectable="0">
          <mxGeometry x="0.4261" relative="1" as="geometry">
            <mxPoint x="23" as="offset" />
          </mxGeometry>
        </mxCell>
        <mxCell id="u4jfkqc6Z_4spAFMnSrN-6" style="edgeStyle=orthogonalEdgeStyle;rounded=0;orthogonalLoop=1;jettySize=auto;html=1;exitX=1;exitY=0.5;exitDx=0;exitDy=0;entryX=0.5;entryY=0;entryDx=0;entryDy=0;dashed=1;dashPattern=12 12;" edge="1" parent="1" source="4iZOH7k5CTV7Lrkq2rq5-16" target="u4jfkqc6Z_4spAFMnSrN-5">
          <mxGeometry relative="1" as="geometry" />
        </mxCell>
        <mxCell id="4iZOH7k5CTV7Lrkq2rq5-16" value="ARGFUNCREM" style="ellipse;whiteSpace=wrap;html=1;" parent="1" vertex="1">
          <mxGeometry x="210" y="30" width="90" height="50" as="geometry" />
        </mxCell>
        <mxCell id="4iZOH7k5CTV7Lrkq2rq5-19" value="ARROW" style="ellipse;whiteSpace=wrap;html=1;" parent="1" vertex="1">
          <mxGeometry x="60" y="110" width="90" height="40" as="geometry" />
        </mxCell>
        <mxCell id="4iZOH7k5CTV7Lrkq2rq5-22" style="edgeStyle=orthogonalEdgeStyle;rounded=0;orthogonalLoop=1;jettySize=auto;html=1;exitX=0.781;exitY=0.104;exitDx=0;exitDy=0;entryX=0.21;entryY=0.094;entryDx=0;entryDy=0;entryPerimeter=0;exitPerimeter=0;" parent="1" source="4iZOH7k5CTV7Lrkq2rq5-16" target="4iZOH7k5CTV7Lrkq2rq5-16" edge="1">
          <mxGeometry relative="1" as="geometry">
            <mxPoint x="255" y="30" as="targetPoint" />
            <Array as="points">
              <mxPoint x="280" y="10" />
              <mxPoint x="229" y="10" />
            </Array>
          </mxGeometry>
        </mxCell>
        <mxCell id="4iZOH7k5CTV7Lrkq2rq5-23" value="letter |&amp;nbsp;_ | digit" style="edgeLabel;html=1;align=center;verticalAlign=middle;resizable=0;points=[];" parent="4iZOH7k5CTV7Lrkq2rq5-22" vertex="1" connectable="0">
          <mxGeometry x="-0.0217" y="-2" relative="1" as="geometry">
            <mxPoint as="offset" />
          </mxGeometry>
        </mxCell>
        <mxCell id="4iZOH7k5CTV7Lrkq2rq5-36" style="edgeStyle=orthogonalEdgeStyle;rounded=0;orthogonalLoop=1;jettySize=auto;html=1;entryX=0;entryY=0.5;entryDx=0;entryDy=0;" parent="1" source="4iZOH7k5CTV7Lrkq2rq5-28" target="4iZOH7k5CTV7Lrkq2rq5-35" edge="1">
          <mxGeometry relative="1" as="geometry" />
        </mxCell>
        <mxCell id="4iZOH7k5CTV7Lrkq2rq5-37" value="&amp;nbsp;letter&amp;nbsp;" style="edgeLabel;html=1;align=center;verticalAlign=middle;resizable=0;points=[];" parent="4iZOH7k5CTV7Lrkq2rq5-36" vertex="1" connectable="0">
          <mxGeometry x="-0.3286" y="2" relative="1" as="geometry">
            <mxPoint x="6" as="offset" />
          </mxGeometry>
        </mxCell>
        <mxCell id="4iZOH7k5CTV7Lrkq2rq5-28" value="ARG1" style="ellipse;whiteSpace=wrap;html=1;" parent="1" vertex="1">
          <mxGeometry x="190" y="105" width="50" height="50" as="geometry" />
        </mxCell>
        <mxCell id="4iZOH7k5CTV7Lrkq2rq5-46" style="edgeStyle=orthogonalEdgeStyle;rounded=0;orthogonalLoop=1;jettySize=auto;html=1;entryX=0;entryY=0.5;entryDx=0;entryDy=0;" parent="1" source="4iZOH7k5CTV7Lrkq2rq5-31" target="4iZOH7k5CTV7Lrkq2rq5-45" edge="1">
          <mxGeometry relative="1" as="geometry" />
        </mxCell>
        <mxCell id="4iZOH7k5CTV7Lrkq2rq5-47" value="letter" style="edgeLabel;html=1;align=center;verticalAlign=middle;resizable=0;points=[];" parent="4iZOH7k5CTV7Lrkq2rq5-46" vertex="1" connectable="0">
          <mxGeometry x="-0.1548" y="2" relative="1" as="geometry">
            <mxPoint x="-1" y="1" as="offset" />
          </mxGeometry>
        </mxCell>
        <mxCell id="u4jfkqc6Z_4spAFMnSrN-11" style="edgeStyle=orthogonalEdgeStyle;rounded=0;orthogonalLoop=1;jettySize=auto;html=1;exitX=1;exitY=1;exitDx=0;exitDy=0;dashed=1;dashPattern=8 8;" edge="1" parent="1" source="4iZOH7k5CTV7Lrkq2rq5-31" target="u4jfkqc6Z_4spAFMnSrN-5">
          <mxGeometry relative="1" as="geometry">
            <Array as="points">
              <mxPoint x="137" y="190" />
              <mxPoint x="505" y="190" />
            </Array>
          </mxGeometry>
        </mxCell>
        <mxCell id="4iZOH7k5CTV7Lrkq2rq5-31" value="OPERATION" style="ellipse;whiteSpace=wrap;html=1;" parent="1" vertex="1">
          <mxGeometry x="60" y="240" width="90" height="40" as="geometry" />
        </mxCell>
        <mxCell id="4iZOH7k5CTV7Lrkq2rq5-33" style="edgeStyle=orthogonalEdgeStyle;rounded=0;orthogonalLoop=1;jettySize=auto;html=1;entryX=-0.029;entryY=0.505;entryDx=0;entryDy=0;entryPerimeter=0;" parent="1" source="4iZOH7k5CTV7Lrkq2rq5-19" target="4iZOH7k5CTV7Lrkq2rq5-28" edge="1">
          <mxGeometry relative="1" as="geometry" />
        </mxCell>
        <mxCell id="4iZOH7k5CTV7Lrkq2rq5-34" value="&amp;nbsp;&amp;gt;&amp;nbsp;" style="edgeLabel;html=1;align=center;verticalAlign=middle;resizable=0;points=[];" parent="4iZOH7k5CTV7Lrkq2rq5-33" vertex="1" connectable="0">
          <mxGeometry x="-0.1203" y="-2" relative="1" as="geometry">
            <mxPoint x="1" as="offset" />
          </mxGeometry>
        </mxCell>
        <mxCell id="4iZOH7k5CTV7Lrkq2rq5-43" style="edgeStyle=orthogonalEdgeStyle;rounded=0;orthogonalLoop=1;jettySize=auto;html=1;entryX=0.5;entryY=0;entryDx=0;entryDy=0;" parent="1" target="4iZOH7k5CTV7Lrkq2rq5-31" edge="1">
          <mxGeometry relative="1" as="geometry">
            <mxPoint x="345" y="150" as="sourcePoint" />
            <mxPoint x="105" y="175" as="targetPoint" />
            <Array as="points">
              <mxPoint x="345" y="165" />
              <mxPoint x="105" y="165" />
            </Array>
          </mxGeometry>
        </mxCell>
        <mxCell id="4iZOH7k5CTV7Lrkq2rq5-44" value="&amp;nbsp;+ | - | * | /&amp;nbsp;" style="edgeLabel;html=1;align=center;verticalAlign=middle;resizable=0;points=[];" parent="4iZOH7k5CTV7Lrkq2rq5-43" vertex="1" connectable="0">
          <mxGeometry x="-0.0563" y="2" relative="1" as="geometry">
            <mxPoint as="offset" />
          </mxGeometry>
        </mxCell>
        <mxCell id="4iZOH7k5CTV7Lrkq2rq5-35" value="ARG1REM" style="ellipse;whiteSpace=wrap;html=1;" parent="1" vertex="1">
          <mxGeometry x="300" y="105" width="90" height="50" as="geometry" />
        </mxCell>
        <mxCell id="4iZOH7k5CTV7Lrkq2rq5-40" style="edgeStyle=orthogonalEdgeStyle;rounded=0;orthogonalLoop=1;jettySize=auto;html=1;entryX=0.935;entryY=0.261;entryDx=0;entryDy=0;entryPerimeter=0;exitX=0.103;exitY=0.186;exitDx=0;exitDy=0;exitPerimeter=0;" parent="1" source="4iZOH7k5CTV7Lrkq2rq5-35" target="4iZOH7k5CTV7Lrkq2rq5-35" edge="1">
          <mxGeometry relative="1" as="geometry">
            <mxPoint x="310" y="110" as="sourcePoint" />
            <Array as="points">
              <mxPoint x="309" y="85" />
              <mxPoint x="384" y="85" />
            </Array>
          </mxGeometry>
        </mxCell>
        <mxCell id="4iZOH7k5CTV7Lrkq2rq5-41" value="&amp;nbsp;letter |&amp;nbsp; | digit&amp;nbsp;" style="edgeLabel;html=1;align=center;verticalAlign=middle;resizable=0;points=[];" parent="4iZOH7k5CTV7Lrkq2rq5-40" vertex="1" connectable="0">
          <mxGeometry x="-0.11" y="-1" relative="1" as="geometry">
            <mxPoint x="5" as="offset" />
          </mxGeometry>
        </mxCell>
        <mxCell id="4iZOH7k5CTV7Lrkq2rq5-49" style="edgeStyle=orthogonalEdgeStyle;rounded=0;orthogonalLoop=1;jettySize=auto;html=1;entryX=0;entryY=0.5;entryDx=0;entryDy=0;" parent="1" source="4iZOH7k5CTV7Lrkq2rq5-45" target="4iZOH7k5CTV7Lrkq2rq5-48" edge="1">
          <mxGeometry relative="1" as="geometry" />
        </mxCell>
        <mxCell id="4iZOH7k5CTV7Lrkq2rq5-52" value="&amp;nbsp;)&amp;nbsp;" style="edgeLabel;html=1;align=center;verticalAlign=middle;resizable=0;points=[];" parent="4iZOH7k5CTV7Lrkq2rq5-49" vertex="1" connectable="0">
          <mxGeometry x="-0.1949" y="-4" relative="1" as="geometry">
            <mxPoint x="-10" y="4" as="offset" />
          </mxGeometry>
        </mxCell>
        <mxCell id="4iZOH7k5CTV7Lrkq2rq5-45" value="OTHERARGS" style="ellipse;whiteSpace=wrap;html=1;" parent="1" vertex="1">
          <mxGeometry x="187.5" y="235" width="120" height="50" as="geometry" />
        </mxCell>
        <mxCell id="4iZOH7k5CTV7Lrkq2rq5-48" value="CLOSE" style="ellipse;whiteSpace=wrap;html=1;" parent="1" vertex="1">
          <mxGeometry x="336.63" y="239" width="52.37" height="42" as="geometry" />
        </mxCell>
        <mxCell id="4iZOH7k5CTV7Lrkq2rq5-50" style="edgeStyle=orthogonalEdgeStyle;rounded=0;orthogonalLoop=1;jettySize=auto;html=1;entryX=0;entryY=0;entryDx=0;entryDy=0;exitX=1;exitY=0;exitDx=0;exitDy=0;" parent="1" source="4iZOH7k5CTV7Lrkq2rq5-45" target="4iZOH7k5CTV7Lrkq2rq5-45" edge="1">
          <mxGeometry relative="1" as="geometry">
            <Array as="points">
              <mxPoint x="302" y="220" />
              <mxPoint x="216" y="220" />
            </Array>
            <mxPoint x="350" y="210" as="sourcePoint" />
          </mxGeometry>
        </mxCell>
        <mxCell id="4iZOH7k5CTV7Lrkq2rq5-51" value="&amp;nbsp;letter |&amp;nbsp; | digit&amp;nbsp;" style="edgeLabel;html=1;align=center;verticalAlign=middle;resizable=0;points=[];" parent="4iZOH7k5CTV7Lrkq2rq5-50" vertex="1" connectable="0">
          <mxGeometry x="0.0505" relative="1" as="geometry">
            <mxPoint x="4" as="offset" />
          </mxGeometry>
        </mxCell>
        <mxCell id="4iZOH7k5CTV7Lrkq2rq5-58" style="edgeStyle=orthogonalEdgeStyle;rounded=0;orthogonalLoop=1;jettySize=auto;html=1;entryX=0;entryY=0.5;entryDx=0;entryDy=0;" parent="1" source="4iZOH7k5CTV7Lrkq2rq5-53" target="4iZOH7k5CTV7Lrkq2rq5-57" edge="1">
          <mxGeometry relative="1" as="geometry" />
        </mxCell>
        <mxCell id="4iZOH7k5CTV7Lrkq2rq5-59" value="digit" style="edgeLabel;html=1;align=center;verticalAlign=middle;resizable=0;points=[];" parent="4iZOH7k5CTV7Lrkq2rq5-58" vertex="1" connectable="0">
          <mxGeometry x="-0.0756" y="1" relative="1" as="geometry">
            <mxPoint x="-2" as="offset" />
          </mxGeometry>
        </mxCell>
        <mxCell id="4iZOH7k5CTV7Lrkq2rq5-53" value="NUMBER1" style="ellipse;whiteSpace=wrap;html=1;" parent="1" vertex="1">
          <mxGeometry x="58.75" y="320" width="85" height="50" as="geometry" />
        </mxCell>
        <mxCell id="4iZOH7k5CTV7Lrkq2rq5-64" style="edgeStyle=orthogonalEdgeStyle;rounded=0;orthogonalLoop=1;jettySize=auto;html=1;entryX=0.5;entryY=0;entryDx=0;entryDy=0;exitX=0.5;exitY=1;exitDx=0;exitDy=0;" parent="1" source="4iZOH7k5CTV7Lrkq2rq5-57" target="4iZOH7k5CTV7Lrkq2rq5-63" edge="1">
          <mxGeometry relative="1" as="geometry">
            <Array as="points">
              <mxPoint x="213.75" y="374" />
              <mxPoint x="98.75" y="374" />
            </Array>
          </mxGeometry>
        </mxCell>
        <mxCell id="4iZOH7k5CTV7Lrkq2rq5-65" value="&amp;nbsp;.&amp;nbsp;" style="edgeLabel;html=1;align=center;verticalAlign=middle;resizable=0;points=[];" parent="4iZOH7k5CTV7Lrkq2rq5-64" vertex="1" connectable="0">
          <mxGeometry x="0.3376" y="-2" relative="1" as="geometry">
            <mxPoint x="32" y="2" as="offset" />
          </mxGeometry>
        </mxCell>
        <mxCell id="4iZOH7k5CTV7Lrkq2rq5-73" style="edgeStyle=orthogonalEdgeStyle;rounded=0;orthogonalLoop=1;jettySize=auto;html=1;entryX=0.5;entryY=0;entryDx=0;entryDy=0;" parent="1" source="4iZOH7k5CTV7Lrkq2rq5-57" target="4iZOH7k5CTV7Lrkq2rq5-72" edge="1">
          <mxGeometry relative="1" as="geometry" />
        </mxCell>
        <mxCell id="4iZOH7k5CTV7Lrkq2rq5-75" value="&quot;&amp;nbsp; &quot;" style="edgeLabel;html=1;align=center;verticalAlign=middle;resizable=0;points=[];" parent="4iZOH7k5CTV7Lrkq2rq5-73" vertex="1" connectable="0">
          <mxGeometry x="-0.4369" y="-1" relative="1" as="geometry">
            <mxPoint as="offset" />
          </mxGeometry>
        </mxCell>
        <mxCell id="u4jfkqc6Z_4spAFMnSrN-16" style="edgeStyle=orthogonalEdgeStyle;rounded=0;orthogonalLoop=1;jettySize=auto;html=1;exitX=1;exitY=0;exitDx=0;exitDy=0;entryX=0.5;entryY=1;entryDx=0;entryDy=0;dashed=1;dashPattern=8 8;" edge="1" parent="1" source="4iZOH7k5CTV7Lrkq2rq5-57" target="u4jfkqc6Z_4spAFMnSrN-5">
          <mxGeometry relative="1" as="geometry" />
        </mxCell>
        <mxCell id="4iZOH7k5CTV7Lrkq2rq5-57" value="INT1" style="ellipse;whiteSpace=wrap;html=1;" parent="1" vertex="1">
          <mxGeometry x="187.5" y="320" width="55" height="50" as="geometry" />
        </mxCell>
        <mxCell id="4iZOH7k5CTV7Lrkq2rq5-60" style="edgeStyle=orthogonalEdgeStyle;rounded=0;orthogonalLoop=1;jettySize=auto;html=1;exitX=1;exitY=0;exitDx=0;exitDy=0;entryX=0;entryY=0;entryDx=0;entryDy=0;" parent="1" source="4iZOH7k5CTV7Lrkq2rq5-57" target="4iZOH7k5CTV7Lrkq2rq5-57" edge="1">
          <mxGeometry relative="1" as="geometry">
            <Array as="points">
              <mxPoint x="233" y="327" />
              <mxPoint x="233" y="310" />
              <mxPoint x="196" y="310" />
            </Array>
          </mxGeometry>
        </mxCell>
        <mxCell id="4iZOH7k5CTV7Lrkq2rq5-61" value="digit" style="edgeLabel;html=1;align=center;verticalAlign=middle;resizable=0;points=[];" parent="4iZOH7k5CTV7Lrkq2rq5-60" vertex="1" connectable="0">
          <mxGeometry x="0.2071" relative="1" as="geometry">
            <mxPoint x="5" as="offset" />
          </mxGeometry>
        </mxCell>
        <mxCell id="4iZOH7k5CTV7Lrkq2rq5-67" style="edgeStyle=orthogonalEdgeStyle;rounded=0;orthogonalLoop=1;jettySize=auto;html=1;entryX=0;entryY=0.5;entryDx=0;entryDy=0;exitX=1;exitY=0.5;exitDx=0;exitDy=0;" parent="1" source="4iZOH7k5CTV7Lrkq2rq5-63" target="4iZOH7k5CTV7Lrkq2rq5-66" edge="1">
          <mxGeometry relative="1" as="geometry">
            <Array as="points">
              <mxPoint x="148.75" y="419" />
              <mxPoint x="148.75" y="419" />
            </Array>
          </mxGeometry>
        </mxCell>
        <mxCell id="4iZOH7k5CTV7Lrkq2rq5-68" value="digit" style="edgeLabel;html=1;align=center;verticalAlign=middle;resizable=0;points=[];" parent="4iZOH7k5CTV7Lrkq2rq5-67" vertex="1" connectable="0">
          <mxGeometry x="-0.4278" y="2" relative="1" as="geometry">
            <mxPoint x="4" as="offset" />
          </mxGeometry>
        </mxCell>
        <mxCell id="4iZOH7k5CTV7Lrkq2rq5-63" value="DECIMAL1" style="ellipse;whiteSpace=wrap;html=1;" parent="1" vertex="1">
          <mxGeometry x="58.75" y="394" width="80" height="50" as="geometry" />
        </mxCell>
        <mxCell id="4iZOH7k5CTV7Lrkq2rq5-74" style="edgeStyle=orthogonalEdgeStyle;rounded=0;orthogonalLoop=1;jettySize=auto;html=1;entryX=0;entryY=0.5;entryDx=0;entryDy=0;" parent="1" source="4iZOH7k5CTV7Lrkq2rq5-66" target="4iZOH7k5CTV7Lrkq2rq5-72" edge="1">
          <mxGeometry relative="1" as="geometry" />
        </mxCell>
        <mxCell id="4iZOH7k5CTV7Lrkq2rq5-76" value="&quot;&amp;nbsp; &quot;" style="edgeLabel;html=1;align=center;verticalAlign=middle;resizable=0;points=[];" parent="4iZOH7k5CTV7Lrkq2rq5-74" vertex="1" connectable="0">
          <mxGeometry x="0.3022" y="-2" relative="1" as="geometry">
            <mxPoint x="-3" y="-1" as="offset" />
          </mxGeometry>
        </mxCell>
        <mxCell id="4iZOH7k5CTV7Lrkq2rq5-66" value="DECIMAL1REM" style="ellipse;whiteSpace=wrap;html=1;" parent="1" vertex="1">
          <mxGeometry x="178.75" y="394" width="92.5" height="50" as="geometry" />
        </mxCell>
        <mxCell id="4iZOH7k5CTV7Lrkq2rq5-100" style="edgeStyle=orthogonalEdgeStyle;rounded=0;orthogonalLoop=1;jettySize=auto;html=1;entryX=0.449;entryY=0.018;entryDx=0;entryDy=0;entryPerimeter=0;" parent="1" source="4iZOH7k5CTV7Lrkq2rq5-72" target="4iZOH7k5CTV7Lrkq2rq5-83" edge="1">
          <mxGeometry relative="1" as="geometry">
            <Array as="points">
              <mxPoint x="346.75" y="454" />
              <mxPoint x="98.75" y="454" />
              <mxPoint x="98.75" y="485" />
            </Array>
          </mxGeometry>
        </mxCell>
        <mxCell id="4iZOH7k5CTV7Lrkq2rq5-101" value="&amp;nbsp;+ | - |&amp;nbsp;λ" style="edgeLabel;html=1;align=center;verticalAlign=middle;resizable=0;points=[];" parent="4iZOH7k5CTV7Lrkq2rq5-100" vertex="1" connectable="0">
          <mxGeometry x="-0.1786" y="1" relative="1" as="geometry">
            <mxPoint as="offset" />
          </mxGeometry>
        </mxCell>
        <mxCell id="u4jfkqc6Z_4spAFMnSrN-17" style="edgeStyle=orthogonalEdgeStyle;rounded=0;orthogonalLoop=1;jettySize=auto;html=1;exitX=1;exitY=0;exitDx=0;exitDy=0;dashed=1;dashPattern=8 8;" edge="1" parent="1" source="4iZOH7k5CTV7Lrkq2rq5-72" target="u4jfkqc6Z_4spAFMnSrN-5">
          <mxGeometry relative="1" as="geometry">
            <Array as="points">
              <mxPoint x="377" y="370" />
              <mxPoint x="505" y="370" />
            </Array>
          </mxGeometry>
        </mxCell>
        <mxCell id="4iZOH7k5CTV7Lrkq2rq5-72" value="SPACENUM" style="ellipse;whiteSpace=wrap;html=1;" parent="1" vertex="1">
          <mxGeometry x="303.75" y="395" width="85" height="48" as="geometry" />
        </mxCell>
        <mxCell id="4iZOH7k5CTV7Lrkq2rq5-77" style="edgeStyle=orthogonalEdgeStyle;rounded=0;orthogonalLoop=1;jettySize=auto;html=1;exitX=1;exitY=0;exitDx=0;exitDy=0;entryX=0;entryY=0;entryDx=0;entryDy=0;" parent="1" source="4iZOH7k5CTV7Lrkq2rq5-66" target="4iZOH7k5CTV7Lrkq2rq5-66" edge="1">
          <mxGeometry relative="1" as="geometry">
            <Array as="points">
              <mxPoint x="257.75" y="384" />
              <mxPoint x="191.75" y="384" />
            </Array>
          </mxGeometry>
        </mxCell>
        <mxCell id="4iZOH7k5CTV7Lrkq2rq5-78" value="digit" style="edgeLabel;html=1;align=center;verticalAlign=middle;resizable=0;points=[];" parent="4iZOH7k5CTV7Lrkq2rq5-77" vertex="1" connectable="0">
          <mxGeometry x="-0.2502" relative="1" as="geometry">
            <mxPoint x="-12" as="offset" />
          </mxGeometry>
        </mxCell>
        <mxCell id="4iZOH7k5CTV7Lrkq2rq5-81" style="edgeStyle=orthogonalEdgeStyle;rounded=0;orthogonalLoop=1;jettySize=auto;html=1;entryX=0;entryY=0.5;entryDx=0;entryDy=0;" parent="1" source="4iZOH7k5CTV7Lrkq2rq5-83" target="4iZOH7k5CTV7Lrkq2rq5-88" edge="1">
          <mxGeometry relative="1" as="geometry" />
        </mxCell>
        <mxCell id="4iZOH7k5CTV7Lrkq2rq5-82" value="digit" style="edgeLabel;html=1;align=center;verticalAlign=middle;resizable=0;points=[];" parent="4iZOH7k5CTV7Lrkq2rq5-81" vertex="1" connectable="0">
          <mxGeometry x="-0.0756" y="1" relative="1" as="geometry">
            <mxPoint x="-2" as="offset" />
          </mxGeometry>
        </mxCell>
        <mxCell id="4iZOH7k5CTV7Lrkq2rq5-83" value="NUMBER2" style="ellipse;whiteSpace=wrap;html=1;" parent="1" vertex="1">
          <mxGeometry x="60" y="484" width="85" height="50" as="geometry" />
        </mxCell>
        <mxCell id="4iZOH7k5CTV7Lrkq2rq5-84" style="edgeStyle=orthogonalEdgeStyle;rounded=0;orthogonalLoop=1;jettySize=auto;html=1;entryX=0.5;entryY=0;entryDx=0;entryDy=0;exitX=0.5;exitY=1;exitDx=0;exitDy=0;" parent="1" source="4iZOH7k5CTV7Lrkq2rq5-88" target="4iZOH7k5CTV7Lrkq2rq5-93" edge="1">
          <mxGeometry relative="1" as="geometry">
            <Array as="points">
              <mxPoint x="215" y="544" />
              <mxPoint x="100" y="544" />
            </Array>
          </mxGeometry>
        </mxCell>
        <mxCell id="4iZOH7k5CTV7Lrkq2rq5-85" value="&amp;nbsp;.&amp;nbsp;" style="edgeLabel;html=1;align=center;verticalAlign=middle;resizable=0;points=[];" parent="4iZOH7k5CTV7Lrkq2rq5-84" vertex="1" connectable="0">
          <mxGeometry x="0.3376" y="-2" relative="1" as="geometry">
            <mxPoint x="32" y="2" as="offset" />
          </mxGeometry>
        </mxCell>
        <mxCell id="4iZOH7k5CTV7Lrkq2rq5-86" style="edgeStyle=orthogonalEdgeStyle;rounded=0;orthogonalLoop=1;jettySize=auto;html=1;entryX=0.5;entryY=0;entryDx=0;entryDy=0;" parent="1" source="4iZOH7k5CTV7Lrkq2rq5-88" target="4iZOH7k5CTV7Lrkq2rq5-97" edge="1">
          <mxGeometry relative="1" as="geometry" />
        </mxCell>
        <mxCell id="4iZOH7k5CTV7Lrkq2rq5-87" value="&amp;nbsp;;&amp;nbsp;" style="edgeLabel;html=1;align=center;verticalAlign=middle;resizable=0;points=[];" parent="4iZOH7k5CTV7Lrkq2rq5-86" vertex="1" connectable="0">
          <mxGeometry x="-0.4369" y="-1" relative="1" as="geometry">
            <mxPoint as="offset" />
          </mxGeometry>
        </mxCell>
        <mxCell id="4iZOH7k5CTV7Lrkq2rq5-88" value="INT2" style="ellipse;whiteSpace=wrap;html=1;" parent="1" vertex="1">
          <mxGeometry x="187.5" y="484" width="55" height="50" as="geometry" />
        </mxCell>
        <mxCell id="4iZOH7k5CTV7Lrkq2rq5-89" style="edgeStyle=orthogonalEdgeStyle;rounded=0;orthogonalLoop=1;jettySize=auto;html=1;exitX=1;exitY=0;exitDx=0;exitDy=0;entryX=0;entryY=0;entryDx=0;entryDy=0;" parent="1" source="4iZOH7k5CTV7Lrkq2rq5-88" target="4iZOH7k5CTV7Lrkq2rq5-88" edge="1">
          <mxGeometry relative="1" as="geometry">
            <Array as="points">
              <mxPoint x="234" y="474" />
              <mxPoint x="196" y="474" />
            </Array>
          </mxGeometry>
        </mxCell>
        <mxCell id="4iZOH7k5CTV7Lrkq2rq5-90" value="digit" style="edgeLabel;html=1;align=center;verticalAlign=middle;resizable=0;points=[];" parent="4iZOH7k5CTV7Lrkq2rq5-89" vertex="1" connectable="0">
          <mxGeometry x="0.2071" relative="1" as="geometry">
            <mxPoint x="6" as="offset" />
          </mxGeometry>
        </mxCell>
        <mxCell id="4iZOH7k5CTV7Lrkq2rq5-91" style="edgeStyle=orthogonalEdgeStyle;rounded=0;orthogonalLoop=1;jettySize=auto;html=1;entryX=0;entryY=0.5;entryDx=0;entryDy=0;exitX=1;exitY=0.5;exitDx=0;exitDy=0;" parent="1" source="4iZOH7k5CTV7Lrkq2rq5-93" target="4iZOH7k5CTV7Lrkq2rq5-96" edge="1">
          <mxGeometry relative="1" as="geometry">
            <Array as="points">
              <mxPoint x="150" y="589" />
              <mxPoint x="150" y="589" />
            </Array>
          </mxGeometry>
        </mxCell>
        <mxCell id="4iZOH7k5CTV7Lrkq2rq5-92" value="digit" style="edgeLabel;html=1;align=center;verticalAlign=middle;resizable=0;points=[];" parent="4iZOH7k5CTV7Lrkq2rq5-91" vertex="1" connectable="0">
          <mxGeometry x="-0.4278" y="2" relative="1" as="geometry">
            <mxPoint x="4" y="1" as="offset" />
          </mxGeometry>
        </mxCell>
        <mxCell id="4iZOH7k5CTV7Lrkq2rq5-93" value="DECIMAL2" style="ellipse;whiteSpace=wrap;html=1;" parent="1" vertex="1">
          <mxGeometry x="60" y="564" width="80" height="50" as="geometry" />
        </mxCell>
        <mxCell id="4iZOH7k5CTV7Lrkq2rq5-94" style="edgeStyle=orthogonalEdgeStyle;rounded=0;orthogonalLoop=1;jettySize=auto;html=1;entryX=0;entryY=0.5;entryDx=0;entryDy=0;" parent="1" source="4iZOH7k5CTV7Lrkq2rq5-96" target="4iZOH7k5CTV7Lrkq2rq5-97" edge="1">
          <mxGeometry relative="1" as="geometry" />
        </mxCell>
        <mxCell id="4iZOH7k5CTV7Lrkq2rq5-95" value="&amp;nbsp;;&amp;nbsp;" style="edgeLabel;html=1;align=center;verticalAlign=middle;resizable=0;points=[];" parent="4iZOH7k5CTV7Lrkq2rq5-94" vertex="1" connectable="0">
          <mxGeometry x="0.3022" y="-2" relative="1" as="geometry">
            <mxPoint x="-3" y="-1" as="offset" />
          </mxGeometry>
        </mxCell>
        <mxCell id="u4jfkqc6Z_4spAFMnSrN-23" style="edgeStyle=orthogonalEdgeStyle;rounded=0;orthogonalLoop=1;jettySize=auto;html=1;exitX=1;exitY=0;exitDx=0;exitDy=0;entryX=1;entryY=1;entryDx=0;entryDy=0;dashed=1;dashPattern=8 8;" edge="1" parent="1" source="4iZOH7k5CTV7Lrkq2rq5-96" target="u4jfkqc6Z_4spAFMnSrN-5">
          <mxGeometry relative="1" as="geometry">
            <Array as="points">
              <mxPoint x="259" y="550" />
              <mxPoint x="530" y="550" />
            </Array>
          </mxGeometry>
        </mxCell>
        <mxCell id="4iZOH7k5CTV7Lrkq2rq5-96" value="DECIMAL2REM" style="ellipse;whiteSpace=wrap;html=1;" parent="1" vertex="1">
          <mxGeometry x="180" y="564" width="92.5" height="50" as="geometry" />
        </mxCell>
        <mxCell id="4iZOH7k5CTV7Lrkq2rq5-97" value="END" style="ellipse;whiteSpace=wrap;html=1;" parent="1" vertex="1">
          <mxGeometry x="305" y="565" width="85" height="48" as="geometry" />
        </mxCell>
        <mxCell id="4iZOH7k5CTV7Lrkq2rq5-98" style="edgeStyle=orthogonalEdgeStyle;rounded=0;orthogonalLoop=1;jettySize=auto;html=1;exitX=1;exitY=0;exitDx=0;exitDy=0;entryX=0;entryY=0;entryDx=0;entryDy=0;" parent="1" source="4iZOH7k5CTV7Lrkq2rq5-96" target="4iZOH7k5CTV7Lrkq2rq5-96" edge="1">
          <mxGeometry relative="1" as="geometry">
            <Array as="points">
              <mxPoint x="259" y="554" />
              <mxPoint x="193" y="554" />
            </Array>
          </mxGeometry>
        </mxCell>
        <mxCell id="4iZOH7k5CTV7Lrkq2rq5-99" value="digit" style="edgeLabel;html=1;align=center;verticalAlign=middle;resizable=0;points=[];" parent="4iZOH7k5CTV7Lrkq2rq5-98" vertex="1" connectable="0">
          <mxGeometry x="-0.2502" relative="1" as="geometry">
            <mxPoint x="-12" as="offset" />
          </mxGeometry>
        </mxCell>
        <mxCell id="kmrlaVPqieBrhJCYA01D-1" value="END" style="ellipse;whiteSpace=wrap;html=1;" parent="1" vertex="1">
          <mxGeometry x="318.88" y="575.5" width="58.75" height="29" as="geometry" />
        </mxCell>
        <mxCell id="u4jfkqc6Z_4spAFMnSrN-1" style="edgeStyle=orthogonalEdgeStyle;rounded=0;orthogonalLoop=1;jettySize=auto;html=1;exitX=0.961;exitY=0.27;exitDx=0;exitDy=0;exitPerimeter=0;" edge="1" parent="1" source="4iZOH7k5CTV7Lrkq2rq5-45">
          <mxGeometry relative="1" as="geometry">
            <mxPoint x="355" y="160" as="sourcePoint" />
            <mxPoint x="115" y="240" as="targetPoint" />
            <Array as="points">
              <mxPoint x="314" y="200" />
              <mxPoint x="115" y="200" />
            </Array>
          </mxGeometry>
        </mxCell>
        <mxCell id="u4jfkqc6Z_4spAFMnSrN-2" value="&amp;nbsp;+ | - | * | /&amp;nbsp;" style="edgeLabel;html=1;align=center;verticalAlign=middle;resizable=0;points=[];" vertex="1" connectable="0" parent="u4jfkqc6Z_4spAFMnSrN-1">
          <mxGeometry x="-0.0563" y="2" relative="1" as="geometry">
            <mxPoint x="-31" as="offset" />
          </mxGeometry>
        </mxCell>
        <mxCell id="u4jfkqc6Z_4spAFMnSrN-3" style="edgeStyle=orthogonalEdgeStyle;rounded=0;orthogonalLoop=1;jettySize=auto;html=1;entryX=0.5;entryY=0;entryDx=0;entryDy=0;" edge="1" parent="1" target="4iZOH7k5CTV7Lrkq2rq5-53">
          <mxGeometry relative="1" as="geometry">
            <mxPoint x="367.5" y="280" as="sourcePoint" />
            <mxPoint y="300" as="targetPoint" />
            <Array as="points">
              <mxPoint x="368" y="295" />
              <mxPoint x="100" y="295" />
              <mxPoint x="100" y="314" />
            </Array>
          </mxGeometry>
        </mxCell>
        <mxCell id="u4jfkqc6Z_4spAFMnSrN-4" value="&amp;nbsp;+ | - | * | /&amp;nbsp;" style="edgeLabel;html=1;align=center;verticalAlign=middle;resizable=0;points=[];" vertex="1" connectable="0" parent="u4jfkqc6Z_4spAFMnSrN-3">
          <mxGeometry x="-0.0563" y="2" relative="1" as="geometry">
            <mxPoint as="offset" />
          </mxGeometry>
        </mxCell>
        <mxCell id="u4jfkqc6Z_4spAFMnSrN-5" value="ERROR" style="ellipse;whiteSpace=wrap;html=1;" vertex="1" parent="1">
          <mxGeometry x="470" y="243" width="70" height="42" as="geometry" />
        </mxCell>
        <mxCell id="u4jfkqc6Z_4spAFMnSrN-7" style="edgeStyle=orthogonalEdgeStyle;rounded=0;orthogonalLoop=1;jettySize=auto;html=1;entryX=0.72;entryY=0.044;entryDx=0;entryDy=0;entryPerimeter=0;dashed=1;dashPattern=8 8;" edge="1" parent="1" source="4iZOH7k5CTV7Lrkq2rq5-14" target="u4jfkqc6Z_4spAFMnSrN-5">
          <mxGeometry relative="1" as="geometry">
            <Array as="points">
              <mxPoint x="120" y="-10" />
              <mxPoint x="520" y="-10" />
            </Array>
          </mxGeometry>
        </mxCell>
        <mxCell id="u4jfkqc6Z_4spAFMnSrN-8" style="edgeStyle=orthogonalEdgeStyle;rounded=0;orthogonalLoop=1;jettySize=auto;html=1;entryX=0.369;entryY=0.031;entryDx=0;entryDy=0;entryPerimeter=0;dashed=1;dashPattern=8 8;" edge="1" parent="1" source="4iZOH7k5CTV7Lrkq2rq5-19" target="u4jfkqc6Z_4spAFMnSrN-5">
          <mxGeometry relative="1" as="geometry">
            <Array as="points">
              <mxPoint x="105" y="160" />
              <mxPoint x="496" y="160" />
            </Array>
          </mxGeometry>
        </mxCell>
        <mxCell id="u4jfkqc6Z_4spAFMnSrN-9" style="edgeStyle=orthogonalEdgeStyle;rounded=0;orthogonalLoop=1;jettySize=auto;html=1;exitX=0.5;exitY=1;exitDx=0;exitDy=0;entryX=0.386;entryY=0.017;entryDx=0;entryDy=0;entryPerimeter=0;dashed=1;dashPattern=8 8;" edge="1" parent="1" source="4iZOH7k5CTV7Lrkq2rq5-28" target="u4jfkqc6Z_4spAFMnSrN-5">
          <mxGeometry relative="1" as="geometry">
            <Array as="points">
              <mxPoint x="215" y="160" />
              <mxPoint x="497" y="160" />
            </Array>
          </mxGeometry>
        </mxCell>
        <mxCell id="u4jfkqc6Z_4spAFMnSrN-10" style="edgeStyle=orthogonalEdgeStyle;rounded=0;orthogonalLoop=1;jettySize=auto;html=1;exitX=1;exitY=0.5;exitDx=0;exitDy=0;entryX=0.206;entryY=0.126;entryDx=0;entryDy=0;entryPerimeter=0;dashed=1;dashPattern=8 8;" edge="1" parent="1" source="4iZOH7k5CTV7Lrkq2rq5-35" target="u4jfkqc6Z_4spAFMnSrN-5">
          <mxGeometry relative="1" as="geometry" />
        </mxCell>
        <mxCell id="u4jfkqc6Z_4spAFMnSrN-12" style="edgeStyle=orthogonalEdgeStyle;rounded=0;orthogonalLoop=1;jettySize=auto;html=1;exitX=0.698;exitY=0.963;exitDx=0;exitDy=0;entryX=0.288;entryY=1.065;entryDx=0;entryDy=0;entryPerimeter=0;dashed=1;dashPattern=8 8;exitPerimeter=0;" edge="1" parent="1" source="4iZOH7k5CTV7Lrkq2rq5-45" target="u4jfkqc6Z_4spAFMnSrN-5">
          <mxGeometry relative="1" as="geometry">
            <Array as="points">
              <mxPoint x="271" y="310" />
              <mxPoint x="490" y="310" />
            </Array>
          </mxGeometry>
        </mxCell>
        <mxCell id="u4jfkqc6Z_4spAFMnSrN-14" style="edgeStyle=orthogonalEdgeStyle;rounded=0;orthogonalLoop=1;jettySize=auto;html=1;entryX=-0.031;entryY=0.412;entryDx=0;entryDy=0;entryPerimeter=0;dashed=1;dashPattern=8 8;" edge="1" parent="1" source="4iZOH7k5CTV7Lrkq2rq5-48" target="u4jfkqc6Z_4spAFMnSrN-5">
          <mxGeometry relative="1" as="geometry" />
        </mxCell>
        <mxCell id="u4jfkqc6Z_4spAFMnSrN-15" style="edgeStyle=orthogonalEdgeStyle;rounded=0;orthogonalLoop=1;jettySize=auto;html=1;exitX=1;exitY=0;exitDx=0;exitDy=0;entryX=0.655;entryY=0.929;entryDx=0;entryDy=0;entryPerimeter=0;dashed=1;dashPattern=8 8;" edge="1" parent="1" source="4iZOH7k5CTV7Lrkq2rq5-53" target="u4jfkqc6Z_4spAFMnSrN-5">
          <mxGeometry relative="1" as="geometry">
            <Array as="points">
              <mxPoint x="131" y="300" />
              <mxPoint x="516" y="300" />
            </Array>
          </mxGeometry>
        </mxCell>
        <mxCell id="u4jfkqc6Z_4spAFMnSrN-18" style="edgeStyle=orthogonalEdgeStyle;rounded=0;orthogonalLoop=1;jettySize=auto;html=1;exitX=1;exitY=0;exitDx=0;exitDy=0;entryX=0.714;entryY=0.946;entryDx=0;entryDy=0;entryPerimeter=0;dashed=1;dashPattern=8 8;" edge="1" parent="1" source="4iZOH7k5CTV7Lrkq2rq5-66" target="u4jfkqc6Z_4spAFMnSrN-5">
          <mxGeometry relative="1" as="geometry">
            <Array as="points">
              <mxPoint x="258" y="370" />
              <mxPoint x="520" y="370" />
            </Array>
          </mxGeometry>
        </mxCell>
        <mxCell id="u4jfkqc6Z_4spAFMnSrN-19" style="edgeStyle=orthogonalEdgeStyle;rounded=0;orthogonalLoop=1;jettySize=auto;html=1;exitX=1;exitY=0;exitDx=0;exitDy=0;entryX=0.921;entryY=0.847;entryDx=0;entryDy=0;entryPerimeter=0;dashed=1;dashPattern=8 8;" edge="1" parent="1" source="4iZOH7k5CTV7Lrkq2rq5-63" target="u4jfkqc6Z_4spAFMnSrN-5">
          <mxGeometry relative="1" as="geometry">
            <Array as="points">
              <mxPoint x="127" y="380" />
              <mxPoint x="535" y="380" />
            </Array>
          </mxGeometry>
        </mxCell>
        <mxCell id="u4jfkqc6Z_4spAFMnSrN-20" style="edgeStyle=orthogonalEdgeStyle;rounded=0;orthogonalLoop=1;jettySize=auto;html=1;exitX=1;exitY=0;exitDx=0;exitDy=0;entryX=0.822;entryY=0.962;entryDx=0;entryDy=0;entryPerimeter=0;dashed=1;dashPattern=8 8;" edge="1" parent="1" source="4iZOH7k5CTV7Lrkq2rq5-83" target="u4jfkqc6Z_4spAFMnSrN-5">
          <mxGeometry relative="1" as="geometry">
            <Array as="points">
              <mxPoint x="133" y="470" />
              <mxPoint x="527" y="470" />
            </Array>
          </mxGeometry>
        </mxCell>
        <mxCell id="u4jfkqc6Z_4spAFMnSrN-21" style="edgeStyle=orthogonalEdgeStyle;rounded=0;orthogonalLoop=1;jettySize=auto;html=1;exitX=1;exitY=0;exitDx=0;exitDy=0;entryX=0.596;entryY=0.962;entryDx=0;entryDy=0;entryPerimeter=0;dashed=1;dashPattern=8 8;" edge="1" parent="1" source="4iZOH7k5CTV7Lrkq2rq5-88" target="u4jfkqc6Z_4spAFMnSrN-5">
          <mxGeometry relative="1" as="geometry" />
        </mxCell>
        <mxCell id="u4jfkqc6Z_4spAFMnSrN-22" style="edgeStyle=orthogonalEdgeStyle;rounded=0;orthogonalLoop=1;jettySize=auto;html=1;exitX=1;exitY=0;exitDx=0;exitDy=0;entryX=0.98;entryY=0.864;entryDx=0;entryDy=0;entryPerimeter=0;dashed=1;dashPattern=8 8;" edge="1" parent="1" source="4iZOH7k5CTV7Lrkq2rq5-97" target="u4jfkqc6Z_4spAFMnSrN-5">
          <mxGeometry relative="1" as="geometry">
            <Array as="points">
              <mxPoint x="378" y="540" />
              <mxPoint x="539" y="540" />
            </Array>
          </mxGeometry>
        </mxCell>
        <mxCell id="u4jfkqc6Z_4spAFMnSrN-24" style="edgeStyle=orthogonalEdgeStyle;rounded=0;orthogonalLoop=1;jettySize=auto;html=1;exitX=1;exitY=0;exitDx=0;exitDy=0;entryX=0.28;entryY=0.913;entryDx=0;entryDy=0;entryPerimeter=0;dashed=1;dashPattern=8 8;" edge="1" parent="1" source="4iZOH7k5CTV7Lrkq2rq5-93" target="u4jfkqc6Z_4spAFMnSrN-5">
          <mxGeometry relative="1" as="geometry">
            <Array as="points">
              <mxPoint x="128" y="550" />
              <mxPoint x="490" y="550" />
            </Array>
          </mxGeometry>
        </mxCell>
      </root>
    </mxGraphModel>
  </diagram>
</mxfile>
